<?xml version="1.0" standalone="no"?>
<!DOCTYPE svg PUBLIC "-//W3C//DTD SVG 20010904//EN"
 "http://www.w3.org/TR/2001/REC-SVG-20010904/DTD/svg10.dtd">
<svg version="1.0" xmlns="http://www.w3.org/2000/svg"
 width="768.000000pt" height="768.000000pt" viewBox="0 0 768.000000 768.000000"
 preserveAspectRatio="xMidYMid meet">
<metadata>
Created by potrace 1.14, written by Peter Selinger 2001-2017
</metadata>
<g transform="translate(0.000000,768.000000) scale(0.100000,-0.100000)"
fill="#000000" stroke="none">
<path d="M2480 7479 c-35 -8 -39 -11 -171 -139 -88 -86 -206 -200 -566 -545
-69 -66 -174 -168 -234 -226 l-109 -107 0 -1344 c0 -1258 1 -1345 17 -1368 35
-50 905 -910 921 -911 9 0 102 -1 205 -1 l188 -1 13 -26 c27 -51 46 -60 134
-63 82 -2 83 -2 60 -20 -13 -10 -28 -18 -33 -18 -6 0 -27 -11 -47 -25 l-38
-25 -701 0 c-386 1 -704 -2 -708 -5 -3 -4 -7 -328 -8 -721 l-3 -714 78 -78
c43 -42 159 -153 257 -247 98 -93 219 -210 270 -260 220 -213 423 -406 441
-419 22 -15 18 -15 209 -15 277 1 320 1 330 -1 6 -1 15 -2 20 -1 14 3 928 3
940 1 6 -1 15 -2 20 -1 6 1 215 2 465 2 415 -1 746 0 777 2 14 0 43 28 360
333 290 280 302 292 478 459 207 197 212 202 224 249 13 53 14 2508 0 2551 -6
20 -165 185 -465 485 l-455 454 -435 -2 -435 -3 -44 25 c-39 24 -125 100 -125
112 0 5 43 1 111 -10 19 -3 54 -8 78 -11 24 -3 46 -7 49 -10 3 -2 13 0 23 6
13 7 19 6 19 -1 0 -6 4 -9 9 -6 4 3 34 -1 65 -9 101 -27 128 -19 177 52 14 20
24 23 90 23 41 0 357 -1 702 -2 495 -1 630 1 636 11 9 14 13 1450 5 1517 -6
48 3 38 -244 274 -287 274 -345 329 -355 340 -11 11 -70 69 -165 160 -218 211
-293 280 -303 281 -65 5 -2704 2 -2727 -2z"/>
</g>
</svg>
